<?xml version="1.0" standalone="no"?>
<!DOCTYPE svg PUBLIC "-//W3C//DTD SVG 20010904//EN"
 "http://www.w3.org/TR/2001/REC-SVG-20010904/DTD/svg10.dtd">
<svg version="1.0" xmlns="http://www.w3.org/2000/svg"
 width="200.000000pt" height="200.000000pt" viewBox="0 0 200.000000 200.000000"
 preserveAspectRatio="xMidYMid meet">
<metadata>
Created by potrace 1.11, written by Peter Selinger 2001-2013
</metadata>
<g transform="translate(0.000000,200.000000) scale(0.100000,-0.100000)"
fill="#000000" stroke="none">
<path d="M523 1012 c-35 -66 -63 -122 -63 -126 0 -3 13 -6 28 -6 25 0 32 8 67
80 21 44 41 80 45 80 3 0 23 -35 45 -78 36 -70 43 -77 72 -80 l33 -3 -65 123
c-42 80 -70 124 -82 126 -14 2 -33 -25 -80 -116z"/>
<path d="M814 1124 c-24 -6 -34 -56 -34 -176 l0 -68 30 0 c29 0 30 1 30 50 l0
50 89 0 c70 0 93 4 109 18 34 28 37 65 9 98 -23 27 -29 28 -118 30 -52 1 -104
0 -115 -2z m185 -53 c8 -5 11 -16 8 -25 -5 -13 -21 -16 -76 -16 -56 0 -72 -3
-80 -17 -8 -14 -10 -9 -11 25 l0 42 73 0 c39 0 78 -4 86 -9z"/>
<path d="M1110 1005 l0 -125 25 0 25 0 0 125 0 125 -25 0 -25 0 0 -125z"/>
<path d="M1220 1006 l0 -126 140 0 140 0 0 25 0 25 -115 0 -115 0 0 25 c0 25
0 25 96 25 80 0 99 3 110 18 7 9 14 20 14 25 0 4 -42 7 -94 7 -86 0 -95 -2
-109 -22 -15 -22 -16 -22 -16 25 l-1 47 115 0 c108 0 115 1 115 20 0 18 -7 20
-79 20 -43 0 -106 3 -140 6 l-61 7 0 -127z"/>
<path d="M150 999 l0 -120 28 3 c27 3 27 4 30 81 l3 78 85 -80 c47 -45 94 -81
105 -81 18 0 19 8 19 120 l0 120 -25 0 c-23 0 -24 -3 -27 -77 l-3 -78 -83 78
c-57 53 -91 77 -107 77 l-25 0 0 -121z"/>
<path d="M1560 1000 l0 -120 25 0 c23 0 25 3 25 50 l0 51 63 -3 62 -3 25 -47
c21 -40 30 -48 53 -48 33 0 33 3 2 56 l-25 43 25 25 c30 31 32 55 4 90 -20 25
-23 26 -140 26 l-119 0 0 -120z m219 71 c8 -5 11 -16 8 -25 -5 -13 -21 -16
-75 -16 -61 0 -72 -3 -85 -22 -15 -22 -16 -22 -16 25 l-1 47 78 0 c42 0 83 -4
91 -9z"/>
</g>
</svg>
